<?xml version="1.0" encoding="UTF-8" standalone="no"?>
<!-- Created with Inkscape (http://www.inkscape.org/) -->

<svg
   width="630"
   height="630"
   viewBox="0 0 210 210"
   version="1.1"
   id="svg1"
   sodipodi:docname="logo-raw.svg"
   inkscape:export-filename="logo.svg"
   inkscape:export-xdpi="96"
   inkscape:export-ydpi="96"
   inkscape:version="1.3.2 (091e20e, 2023-11-25, custom)"
   xmlns:inkscape="http://www.inkscape.org/namespaces/inkscape"
   xmlns:sodipodi="http://sodipodi.sourceforge.net/DTD/sodipodi-0.dtd"
   xmlns:xlink="http://www.w3.org/1999/xlink"
   xmlns="http://www.w3.org/2000/svg"
   xmlns:svg="http://www.w3.org/2000/svg">
  <sodipodi:namedview
     id="namedview1"
     pagecolor="#ffffff"
     bordercolor="#000000"
     borderopacity="0.25"
     inkscape:showpageshadow="2"
     inkscape:pageopacity="0.0"
     inkscape:pagecheckerboard="0"
     inkscape:deskcolor="#d1d1d1"
     inkscape:zoom="0.93095241"
     inkscape:cx="73.580561"
     inkscape:cy="223.96419"
     inkscape:window-width="2560"
     inkscape:window-height="1369"
     inkscape:window-x="1912"
     inkscape:window-y="-8"
     inkscape:window-maximized="1"
     inkscape:current-layer="svg1"
     showguides="false" />
  <defs
     id="defs1">
    <linearGradient
       id="linearGradient8">
      <stop
         style="stop-color:#b39ddb;stop-opacity:1;"
         offset="0.38515082"
         id="stop7" />
      <stop
         style="stop-color:#aa80f8;stop-opacity:1;"
         offset="1"
         id="stop8" />
    </linearGradient>
    <linearGradient
       id="linearGradient24">
      <stop
         style="stop-color:#feb692;stop-opacity:1;"
         offset="0"
         id="stop24" />
      <stop
         style="stop-color:#b39ddb;stop-opacity:1;"
         offset="1"
         id="stop23" />
    </linearGradient>
    <linearGradient
       id="linearGradient39">
      <stop
         style="stop-color:#b39ddb;stop-opacity:1;"
         offset="0.5"
         id="stop39" />
      <stop
         style="stop-color:#aa80f8;stop-opacity:1;"
         offset="1"
         id="stop40" />
    </linearGradient>
    <filter
       style="color-interpolation-filters:sRGB"
       id="filter35"
       x="-0.22368453"
       y="-0.19371649"
       width="1.4473691"
       height="1.3975224">
      <feFlood
         result="flood"
         in="SourceGraphic"
         flood-opacity="0.121569"
         flood-color="rgb(0,0,0)"
         id="feFlood34" />
      <feGaussianBlur
         result="blur"
         in="SourceGraphic"
         stdDeviation="8.000000"
         id="feGaussianBlur34" />
      <feOffset
         result="offset"
         in="blur"
         dx="0.000000"
         dy="1.000000"
         id="feOffset34" />
      <feComposite
         result="comp1"
         operator="in"
         in="flood"
         in2="offset"
         id="feComposite34" />
      <feComposite
         result="comp2"
         operator="over"
         in="SourceGraphic"
         in2="comp1"
         id="feComposite35" />
    </filter>
    <linearGradient
       xlink:href="#linearGradient39"
       id="linearGradient40"
       x1="80.984245"
       y1="111.41783"
       x2="136.04895"
       y2="185.42902"
       gradientUnits="userSpaceOnUse"
       spreadMethod="pad"
       gradientTransform="translate(2.6920937,-1.7432497)" />
    <filter
       style="color-interpolation-filters:sRGB"
       id="filter35-4"
       x="-0.22368453"
       y="-0.19371649"
       width="1.4473691"
       height="1.3975224">
      <feFlood
         result="flood"
         in="SourceGraphic"
         flood-opacity="0.121569"
         flood-color="rgb(0,0,0)"
         id="feFlood34-0" />
      <feGaussianBlur
         result="blur"
         in="SourceGraphic"
         stdDeviation="8.000000"
         id="feGaussianBlur34-5" />
      <feOffset
         result="offset"
         in="blur"
         dx="0.000000"
         dy="1.000000"
         id="feOffset34-5" />
      <feComposite
         result="comp1"
         operator="in"
         in="flood"
         in2="offset"
         id="feComposite34-7" />
      <feComposite
         result="comp2"
         operator="over"
         in="SourceGraphic"
         in2="comp1"
         id="feComposite35-9" />
    </filter>
    <filter
       style="color-interpolation-filters:sRGB"
       id="filter35-1"
       x="-0.22368453"
       y="-0.19371649"
       width="1.4473691"
       height="1.3975224">
      <feFlood
         result="flood"
         in="SourceGraphic"
         flood-opacity="0.121569"
         flood-color="rgb(0,0,0)"
         id="feFlood34-5" />
      <feGaussianBlur
         result="blur"
         in="SourceGraphic"
         stdDeviation="8.000000"
         id="feGaussianBlur34-9" />
      <feOffset
         result="offset"
         in="blur"
         dx="0.000000"
         dy="1.000000"
         id="feOffset34-1" />
      <feComposite
         result="comp1"
         operator="in"
         in="flood"
         in2="offset"
         id="feComposite34-8" />
      <feComposite
         result="comp2"
         operator="over"
         in="SourceGraphic"
         in2="comp1"
         id="feComposite35-93" />
    </filter>
    <filter
       style="color-interpolation-filters:sRGB"
       id="filter35-7"
       x="-0.22368453"
       y="-0.19371649"
       width="1.4473691"
       height="1.3975224">
      <feFlood
         result="flood"
         in="SourceGraphic"
         flood-opacity="0.121569"
         flood-color="rgb(0,0,0)"
         id="feFlood34-8" />
      <feGaussianBlur
         result="blur"
         in="SourceGraphic"
         stdDeviation="8.000000"
         id="feGaussianBlur34-58" />
      <feOffset
         result="offset"
         in="blur"
         dx="0.000000"
         dy="1.000000"
         id="feOffset34-3" />
      <feComposite
         result="comp1"
         operator="in"
         in="flood"
         in2="offset"
         id="feComposite34-4" />
      <feComposite
         result="comp2"
         operator="over"
         in="SourceGraphic"
         in2="comp1"
         id="feComposite35-1" />
    </filter>
    <linearGradient
       inkscape:collect="always"
       xlink:href="#linearGradient24"
       id="linearGradient3"
       gradientUnits="userSpaceOnUse"
       x1="110.09421"
       y1="137.97397"
       x2="67.17662"
       y2="63.638535" />
    <filter
       style="color-interpolation-filters:sRGB"
       id="filter35-4-2"
       x="-0.22368453"
       y="-0.19371649"
       width="1.4473691"
       height="1.3975224">
      <feFlood
         result="flood"
         in="SourceGraphic"
         flood-opacity="0.121569"
         flood-color="rgb(0,0,0)"
         id="feFlood34-0-8" />
      <feGaussianBlur
         result="blur"
         in="SourceGraphic"
         stdDeviation="8.000000"
         id="feGaussianBlur34-5-7" />
      <feOffset
         result="offset"
         in="blur"
         dx="0.000000"
         dy="1.000000"
         id="feOffset34-5-0" />
      <feComposite
         result="comp1"
         operator="in"
         in="flood"
         in2="offset"
         id="feComposite34-7-8" />
      <feComposite
         result="comp2"
         operator="over"
         in="SourceGraphic"
         in2="comp1"
         id="feComposite35-9-3" />
    </filter>
    <filter
       style="color-interpolation-filters:sRGB"
       id="filter35-4-1"
       x="-0.22368453"
       y="-0.19371649"
       width="1.4473691"
       height="1.3975224">
      <feFlood
         result="flood"
         in="SourceGraphic"
         flood-opacity="0.121569"
         flood-color="rgb(0,0,0)"
         id="feFlood34-0-9" />
      <feGaussianBlur
         result="blur"
         in="SourceGraphic"
         stdDeviation="8.000000"
         id="feGaussianBlur34-5-71" />
      <feOffset
         result="offset"
         in="blur"
         dx="0.000000"
         dy="1.000000"
         id="feOffset34-5-4" />
      <feComposite
         result="comp1"
         operator="in"
         in="flood"
         in2="offset"
         id="feComposite34-7-4" />
      <feComposite
         result="comp2"
         operator="over"
         in="SourceGraphic"
         in2="comp1"
         id="feComposite35-9-8" />
    </filter>
    <linearGradient
       inkscape:collect="always"
       xlink:href="#linearGradient24"
       id="linearGradient5"
       gradientUnits="userSpaceOnUse"
       x1="110.09421"
       y1="137.97397"
       x2="67.17662"
       y2="63.638535" />
    <linearGradient
       inkscape:collect="always"
       xlink:href="#linearGradient8"
       id="linearGradient7"
       x1="72.952065"
       y1="92.244896"
       x2="146.32053"
       y2="197.90813"
       gradientUnits="userSpaceOnUse" />
    <filter
       style="color-interpolation-filters:sRGB"
       id="filter35-4-3"
       x="-0.22368453"
       y="-0.19371649"
       width="1.4473691"
       height="1.3975224">
      <feFlood
         result="flood"
         in="SourceGraphic"
         flood-opacity="0.121569"
         flood-color="rgb(0,0,0)"
         id="feFlood34-0-0" />
      <feGaussianBlur
         result="blur"
         in="SourceGraphic"
         stdDeviation="8.000000"
         id="feGaussianBlur34-5-1" />
      <feOffset
         result="offset"
         in="blur"
         dx="0.000000"
         dy="1.000000"
         id="feOffset34-5-9" />
      <feComposite
         result="comp1"
         operator="in"
         in="flood"
         in2="offset"
         id="feComposite34-7-0" />
      <feComposite
         result="comp2"
         operator="over"
         in="SourceGraphic"
         in2="comp1"
         id="feComposite35-9-4" />
    </filter>
    <linearGradient
       inkscape:collect="always"
       xlink:href="#linearGradient8"
       id="linearGradient9"
       gradientUnits="userSpaceOnUse"
       x1="72.952065"
       y1="92.244896"
       x2="146.32053"
       y2="197.90813" />
  </defs>
  <g
     id="layer1-03"
     transform="matrix(1.1318268,0,0,1.1318268,-13.841816,-63.076277)"
     inkscape:label="外渐变版本-文字路径化"
     sodipodi:insensitive="true"
     style="display:none">
    <path
       style="fill:url(#linearGradient3);fill-opacity:1;stroke:none;stroke-width:0.265156;stroke-dasharray:none;filter:url(#filter35-7);image-rendering:auto"
       id="path11-1"
       d="m 45.71783,125.58473 10e-7,-49.556958 42.917584,-24.778478 42.917585,24.77848 v 49.556956 l -42.917587,24.77848 z"
       transform="matrix(1.493464,0,0,1.4934565,-27.3738,-2.7964882)"
       inkscape:label="Container" />
    <path
       style="font-size:98.2339px;font-family:'Exo 2';-inkscape-font-specification:'Exo 2, ';fill:#ffffff;stroke-width:1.02103"
       d="m 104.65618,113.43049 q 4.81346,0.0982 9.92163,0.49117 5.10816,0.39293 10.21632,1.4735 l -0.5894,6.28697 q -4.22406,-0.19646 -9.33222,-0.2947 -5.10816,-0.19646 -9.82339,-0.19646 -3.63466,0 -6.286971,0.2947 -2.554082,0.19646 -4.224058,1.1788 -1.669976,0.88411 -2.455848,3.04525 -0.687637,2.06292 -0.687637,5.7958 0,5.59934 1.964678,7.85872 2.062912,2.16114 6.581672,3.24172 l 13.752744,3.43818 q 7.85871,1.86645 10.7075,6.58167 2.94701,4.617 2.94701,12.47571 0,5.89403 -1.37527,9.52869 -1.27704,3.63465 -4.02759,5.59933 -2.75055,1.86644 -7.07284,2.55408 -4.32229,0.78587 -10.21633,0.78587 -3.33995,0 -8.742814,-0.2947 -5.304631,-0.2947 -12.279238,-1.57174 l 0.589403,-6.3852 q 5.795801,0.19646 9.332221,0.39293 3.53642,0.0982 6.090502,0.0982 2.554086,0 5.304626,0 5.2064,0 8.15342,-0.78587 3.04525,-0.78587 4.22406,-3.14348 1.27704,-2.35762 1.27704,-6.97461 0,-3.92935 -0.88411,-6.0905 -0.8841,-2.16115 -2.84878,-3.24172 -1.86645,-1.17881 -4.81346,-1.86644 L 96.0116,150.16997 q -7.367543,-1.86645 -10.412794,-6.48344 -2.947017,-4.61699 -2.947017,-12.37747 0,-5.89404 1.277041,-9.43046 1.375274,-3.63465 4.02759,-5.40286 2.750549,-1.86645 6.876373,-2.45585 4.125824,-0.5894 9.823387,-0.5894 z"
       id="text35-2"
       inkscape:label="S"
       aria-label="S" />
  </g>
  <g
     id="layer1-0"
     transform="matrix(1.1318268,0,0,1.1318268,-13.841818,-63.076276)"
     inkscape:label="内渐变版本-文字路径化"
     style="display:none"
     sodipodi:insensitive="true">
    <path
       style="fill:#ffffff;fill-opacity:1;stroke:none;stroke-width:0.265156;stroke-dasharray:none;filter:url(#filter35-4);image-rendering:auto"
       id="path11-2"
       d="m 45.71783,125.58473 10e-7,-49.556958 42.917584,-24.778478 42.917585,24.77848 v 49.556956 l -42.917587,24.77848 z"
       transform="matrix(1.493464,0,0,1.4934565,-27.3738,-2.7964882)"
       inkscape:label="Container" />
    <path
       style="font-size:98.2339px;font-family:'Exo 2';-inkscape-font-specification:'Exo 2, ';fill:url(#linearGradient7);stroke-width:1.02103"
       d="m 104.65618,113.43049 q 4.81346,0.0982 9.92163,0.49117 5.10816,0.39293 10.21632,1.4735 l -0.5894,6.28697 q -4.22406,-0.19646 -9.33222,-0.2947 -5.10816,-0.19646 -9.82339,-0.19646 -3.63466,0 -6.286971,0.2947 -2.554082,0.19646 -4.224058,1.1788 -1.669976,0.88411 -2.455848,3.04525 -0.687637,2.06292 -0.687637,5.7958 0,5.59934 1.964678,7.85872 2.062912,2.16114 6.581672,3.24172 l 13.752744,3.43818 q 7.85871,1.86645 10.7075,6.58167 2.94701,4.617 2.94701,12.47571 0,5.89403 -1.37527,9.52869 -1.27704,3.63465 -4.02759,5.59933 -2.75055,1.86644 -7.07284,2.55408 -4.32229,0.78587 -10.21633,0.78587 -3.33995,0 -8.742814,-0.2947 -5.304631,-0.2947 -12.279238,-1.57174 l 0.589403,-6.3852 q 5.795801,0.19646 9.332221,0.39293 3.53642,0.0982 6.090502,0.0982 2.554086,0 5.304626,0 5.2064,0 8.15342,-0.78587 3.04525,-0.78587 4.22406,-3.14348 1.27704,-2.35762 1.27704,-6.97461 0,-3.92935 -0.88411,-6.0905 -0.8841,-2.16115 -2.84878,-3.24172 -1.86645,-1.17881 -4.81346,-1.86644 L 96.0116,150.16997 q -7.367543,-1.86645 -10.412794,-6.48344 -2.947017,-4.61699 -2.947017,-12.37747 0,-5.89404 1.277041,-9.43046 1.375274,-3.63465 4.02759,-5.40286 2.750549,-1.86645 6.876373,-2.45585 4.125824,-0.5894 9.823387,-0.5894 z"
       id="text35-4"
       inkscape:label="S"
       aria-label="S" />
  </g>
  <g
     id="layer1-0-9"
     transform="matrix(1.1318268,0,0,1.1318268,-13.841818,-63.076276)"
     inkscape:label="内渐变版本"
     style="display:none"
     sodipodi:insensitive="true">
    <path
       style="fill:#ffffff;fill-opacity:1;stroke:none;stroke-width:0.265156;stroke-dasharray:none;filter:url(#filter35-4-3);image-rendering:auto"
       id="path11-2-6"
       d="m 45.71783,125.58473 10e-7,-49.556958 42.917584,-24.778478 42.917585,24.77848 v 49.556956 l -42.917587,24.77848 z"
       transform="matrix(1.493464,0,0,1.4934565,-27.3738,-2.7964882)"
       inkscape:label="Container" />
    <text
       xml:space="preserve"
       style="font-size:98.2339px;fill:url(#linearGradient9);fill-opacity:1;stroke:none;stroke-width:1.02103;stroke-dasharray:none"
       x="77.248924"
       y="182.39069"
       id="text35-4-5"
       inkscape:label="S"><tspan
         id="tspan35-3-5"
         style="font-style:normal;font-variant:normal;font-weight:normal;font-stretch:normal;font-size:98.2339px;font-family:'Exo 2';-inkscape-font-specification:'Exo 2, ';fill:url(#linearGradient9);fill-opacity:1;stroke-width:1.02103"
         x="77.248924"
         y="182.39069">S</tspan></text>
  </g>
  <g
     id="layer1-0-2"
     transform="matrix(1.1318268,0,0,1.1318268,-13.841818,-63.076276)"
     inkscape:label="外渐变版本"
     style="display:inline"
     sodipodi:insensitive="true">
    <path
       style="fill:url(#linearGradient5);fill-opacity:1;stroke:none;stroke-width:0.265156;stroke-dasharray:none;filter:url(#filter35-4-1);image-rendering:auto"
       id="path11-2-4"
       d="m 45.71783,125.58473 10e-7,-49.556958 42.917584,-24.778478 42.917585,24.77848 v 49.556956 l -42.917587,24.77848 z"
       transform="matrix(1.493464,0,0,1.4934565,-27.3738,-2.7964882)"
       inkscape:label="Container" />
    <text
       xml:space="preserve"
       style="font-size:98.2339px;fill:#ffffff;fill-opacity:1;stroke:none;stroke-width:1.02103;stroke-dasharray:none"
       x="77.248924"
       y="182.39069"
       id="text35-4-4"
       inkscape:label="S"><tspan
         id="tspan35-3-0"
         style="font-style:normal;font-variant:normal;font-weight:normal;font-stretch:normal;font-size:98.2339px;font-family:'Exo 2';-inkscape-font-specification:'Exo 2, ';fill:#ffffff;fill-opacity:1;stroke-width:1.02103"
         x="77.248924"
         y="182.39069">S</tspan></text>
  </g>
</svg>
